<mxfile host="app.diagrams.net" modified="2024-07-13T04:04:01.879Z" agent="Mozilla/5.0 (Windows NT 10.0; Win64; x64) AppleWebKit/537.36 (KHTML, like Gecko) Chrome/125.0.0.0 Safari/537.36 OPR/111.0.0.0" version="24.6.5" etag="pYTEJRXSIrUYovTz3IsU" type="github">
  <diagram name="Page-1" id="bUdxkc4C-8dXbEJqsbLI">
    <mxGraphModel>
      <root>
        <mxCell id="0" />
        <mxCell id="1" parent="0" />
      </root>
    </mxGraphModel>
  </diagram>
</mxfile>
